#!OML:ASF H:\Terrain\Patient Classification 1\Takeo\Monday\TakeoMonday.ASF
:FULLY-SPECIFIED
:DEGREES
262
root 10.1857 17.5445 14.9905 -3.76258 -6.94553 -2.94903
lowerback 7.03229 0.450333 3.92978
upperback 2.6095 0.870366 0.818946
thorax -1.20067 0.444435 -1.43064
lowerneck -10.7101 2.71209 0.788337
upperneck 0.121991 3.66818 -4.62902
head 1.99645 1.69348 -1.43412
rclavicle -6.26793e-015 0
rhumerus -8.248 14.9686 -85.2699
rradius 44.4791
rwrist -17.8748
rhand -24.1452 17.223
rfingers 7.12502
rthumb 2.33712 -12.7439
lclavicle -6.26793e-015 0
lhumerus -52.3566 29.599 67.4
lradius 16.8454
lwrist 8.53239
lhand -20.603 21.0686
lfingers 7.12502
lthumb 5.75764 50.9704
rfemur 14.389 4.76698 27.5929
rtibia 12.8407
rfoot -17.0393 -1.37537
rtoes -2.90628
lfemur -27.2713 -6.61064 -14.0585
ltibia 26.3005
lfoot -13.3989 16.5338
ltoes -13.2157
263
root 10.2038 17.5315 15.1724 -3.66217 -7.16925 -3.16282
lowerback 6.98181 0.498141 4.213
upperback 2.61347 0.949861 0.824205
thorax -1.159 0.485932 -1.58921
lowerneck -11.0169 2.69048 0.899386
upperneck 0.184101 3.63047 -4.67928
head 2.07599 1.66859 -1.46968
rclavicle -7.95139e-016 1.30204e-014
rhumerus -7.76671 15.1716 -85.0531
rradius 45.323
rwrist -18.2475
rhand -24.288 17.6127
rfingers 7.12502
rthumb 2.19925 -12.3557
lclavicle -7.95139e-016 1.30204e-014
lhumerus -52.3991 29.8522 67.0512
lradius 16.5815
lwrist 8.19521
lhand -19.7484 21.8198
lfingers 7.12502
lthumb 6.58271 51.6974
rfemur 15.43 4.54921 27.6294
rtibia 11.8646
rfoot -16.6621 -0.904616
rtoes -2.50745
lfemur -27.3134 -6.57418 -13.7359
ltibia 24.9933
lfoot -12.9232 17.0077
ltoes -16.2986
264
root 10.2216 17.5154 15.3442 -3.60473 -7.43228 -3.47384
lowerback 7.1287 0.577709 4.62908
upperback 2.56593 1.09313 0.834315
thorax -1.27242 0.555732 -1.82543
lowerneck -10.6629 2.65682 1.08932
upperneck -0.412374 3.54376 -4.87991
head 1.82205 1.63332 -1.5755
rclavicle 3.39487e-015 -3.11595e-014
rhumerus -7.29607 15.0654 -84.9421
rradius 45.8777
rwrist -18.1325
rhand -24.5901 18.0091
rfingers 7.12502
rthumb 1.90749 -11.9621
lclavicle 3.39487e-015 -3.11595e-014
lhumerus -52.5904 29.9865 66.7068
lradius 16.6068
lwrist 7.84818
lhand -18.6453 22.7099
lfingers 7.12502
lthumb 7.64753 52.5517
rfemur 16.4881 4.51277 27.8804
rtibia 10.7814
rfoot -15.9518 -0.898161
rtoes -4.90633
lfemur -27.4057 -6.16455 -13.4302
ltibia 24.1461
lfoot -12.4249 17.0131
ltoes -18.8182
265
root 10.2383 17.5009 15.5223 -3.69683 -7.61232 -3.714
lowerback 7.2998 0.568293 4.83803
upperback 2.60334 1.10434 0.882512
thorax -1.3243 0.561065 -1.89595
lowerneck -10.493 2.59757 1.06996
upperneck -0.864047 3.44647 -4.82573
head 1.63781 1.59476 -1.56039
rclavicle -1.78068e-014 1.46107e-014
rhumerus -6.82154 15.1402 -84.9031
rradius 46.4577
rwrist -18.0374
rhand -24.3835 18.3608
rfingers 7.12502
rthumb 2.10701 -11.6086
lclavicle -1.78068e-014 1.46107e-014
lhumerus -52.7578 30.0314 66.6924
lradius 16.8153
lwrist 7.90032
lhand -18.3703 22.79
lfingers 7.12502
lthumb 7.91294 52.6219
rfemur 17.6793 4.58309 28.1345
rtibia 9.68868
rfoot -15.148 -1.55615
rtoes -10.5435
lfemur -27.3549 -5.89382 -13.2233
ltibia 23.6883
lfoot -12.2593 16.6368
ltoes -20.0634
266
root 10.2665 17.4895 15.7237 -3.67312 -7.74076 -3.60401
lowerback 7.16682 0.593559 4.83333
upperback 2.59524 1.12941 0.85869
thorax -1.2568 0.575065 -1.91776
lowerneck -10.6181 2.50641 1.01327
upperneck -0.909518 3.33054 -4.85033
head 1.64081 1.5352 -1.5632
rclavicle -1.26228e-014 -3.8266e-015
rhumerus -6.5155 15.3478 -84.6826
rradius 47.1961
rwrist -18.0584
rhand -24.4668 18.0879
rfingers 7.12502
rthumb 2.02651 -11.8822
lclavicle -1.26228e-014 -3.8266e-015
lhumerus -52.7266 29.6636 67.2083
lradius 16.9717
lwrist 8.38367
lhand -18.8928 22.6367
lfingers 7.12502
lthumb 7.40861 52.487
rfemur 18.6596 4.69648 27.8676
rtibia 9.07093
rfoot -14.8233 -1.79939
rtoes -12.9636
lfemur -27.1468 -5.77452 -13.502
ltibia 23.366
lfoot -12.7112 16.3712
ltoes -19.4393
267
root 10.2972 17.4729 15.9327 -3.91718 -7.8051 -2.90572
lowerback 7.03875 0.673651 4.32242
upperback 2.72195 1.18646 0.641335
thorax -1.05809 0.608646 -1.85667
lowerneck -10.5021 2.51203 1.137
upperneck -1.2571 3.31434 -5.07316
head 1.51483 1.528 -1.65877
rclavicle -2.20589e-014 -9.54166e-015
rhumerus -6.10223 15.4587 -84.4029
rradius 47.655
rwrist -18.1107
rhand -24.8444 18.2535
rfingers 7.12502
rthumb 1.66181 -11.7197
lclavicle -2.20589e-014 -9.54166e-015
lhumerus -52.4679 29.3518 67.6482
lradius 17.0911
lwrist 8.67468
lhand -19.0167 22.999
lfingers 7.12502
lthumb 7.28907 52.8534
rfemur 19.703 4.79542 26.9317
rtibia 8.97838
rfoot -14.8457 -1.62424
rtoes -12.1016
lfemur -26.5853 -5.58817 -14.5415
ltibia 23.1447
lfoot -13.4671 16.1069
ltoes -19.0297
